<svg aria-hidden="true" style="position: absolute; width: 0; height: 0; overflow: hidden;" version="1.1" xmlns="http://www.w3.org/2000/svg" xmlns:xlink="http://www.w3.org/1999/xlink">
<defs>
<symbol id="icon-cart" viewBox="0 0 32 32">
<path d="M15.216 23.661c-0.506 0-1.001 0.15-1.422 0.431s-0.749 0.681-0.943 1.149c-0.194 0.468-0.244 0.983-0.146 1.479s0.343 0.953 0.701 1.311c0.358 0.358 0.814 0.602 1.311 0.701s1.011 0.048 1.479-0.146 0.868-0.522 1.149-0.943c0.281-0.421 0.431-0.916 0.431-1.422 0-0.679-0.27-1.33-0.75-1.81s-1.131-0.75-1.81-0.75zM15.216 27.501c-0.253 0-0.501-0.075-0.711-0.216s-0.375-0.341-0.471-0.575c-0.097-0.234-0.122-0.491-0.073-0.74s0.171-0.476 0.35-0.655 0.407-0.301 0.655-0.35c0.248-0.049 0.506-0.024 0.74 0.073s0.434 0.261 0.574 0.471c0.141 0.21 0.216 0.458 0.216 0.711-0.003 0.338-0.139 0.661-0.378 0.899s-0.564 0.372-0.902 0.372v0.010z"></path>
<path d="M24.583 23.661c-0.506 0-1.001 0.15-1.422 0.431s-0.749 0.681-0.943 1.149c-0.194 0.468-0.244 0.983-0.146 1.479s0.343 0.953 0.701 1.311c0.358 0.358 0.814 0.602 1.311 0.701s1.011 0.048 1.479-0.146c0.468-0.194 0.868-0.522 1.149-0.943s0.431-0.916 0.431-1.422c0-0.679-0.27-1.33-0.75-1.81s-1.131-0.75-1.81-0.75zM24.583 27.501c-0.253 0-0.501-0.075-0.711-0.216s-0.375-0.341-0.471-0.575c-0.097-0.234-0.122-0.491-0.073-0.74s0.171-0.476 0.35-0.655 0.407-0.301 0.655-0.35c0.248-0.049 0.506-0.024 0.74 0.073s0.434 0.261 0.575 0.471c0.141 0.21 0.216 0.458 0.216 0.711-0.003 0.338-0.139 0.661-0.378 0.899s-0.564 0.372-0.902 0.372v0.010z"></path>
<path d="M28.4 19.76l2.589-11.558c0.068-0.302 0.067-0.616-0.003-0.917s-0.207-0.584-0.4-0.826c-0.193-0.242-0.439-0.437-0.718-0.571s-0.585-0.204-0.895-0.204h-20.182l-0.397-1.942c-0.030-0.147-0.11-0.278-0.227-0.372s-0.263-0.143-0.413-0.14h-6.154c-0.17 0-0.333 0.067-0.453 0.187s-0.187 0.283-0.187 0.453c0 0.17 0.067 0.333 0.187 0.453s0.283 0.187 0.453 0.187h5.645l0.397 1.942 2.72 13.296 0.611 2.973c0.030 0.147 0.11 0.278 0.227 0.372s0.263 0.143 0.413 0.14h17.866c0.17 0 0.333-0.067 0.453-0.187s0.187-0.283 0.187-0.453-0.067-0.332-0.187-0.453c-0.12-0.12-0.283-0.187-0.453-0.187h-17.357l-0.349-1.699h16c0.145 0.001 0.286-0.047 0.4-0.137s0.194-0.215 0.227-0.356zM11.52 18.979l-2.467-12.016h19.92c0.118-0.001 0.235 0.026 0.342 0.077s0.201 0.125 0.274 0.218c0.074 0.092 0.126 0.2 0.152 0.316s0.026 0.235-0.001 0.35l-2.48 11.056h-15.741z"></path>
</symbol>
<symbol id="icon-left-arrow" viewBox="0 0 32 32">
<path d="M26.944 15.36h-20.713l7.581-9.965c0.046-0.060 0.082-0.131 0.107-0.21s0.037-0.163 0.037-0.248c0-0.085-0.013-0.169-0.037-0.248s-0.061-0.15-0.107-0.21c-0.046-0.060-0.1-0.108-0.16-0.14s-0.124-0.049-0.188-0.049c-0.065 0-0.129 0.017-0.188 0.049s-0.114 0.080-0.16 0.14l-8.403 11.066c-0.023 0.030-0.043 0.063-0.061 0.099-0.008 0.015-0.016 0.031-0.022 0.048l-0.024 0.064-0.015 0.064c-0.001 0.018-0.001 0.036 0 0.054-0.012 0.082-0.012 0.167 0 0.25-0.001 0.018-0.001 0.036 0 0.054l0.015 0.064 0.024 0.064c0.006 0.017 0.014 0.033 0.022 0.048 0.017 0.036 0.038 0.069 0.061 0.099l8.403 11.066c0.045 0.061 0.099 0.109 0.159 0.142s0.124 0.050 0.189 0.050 0.129-0.017 0.189-0.050c0.060-0.033 0.114-0.081 0.159-0.142 0.045-0.059 0.081-0.13 0.106-0.208s0.037-0.161 0.037-0.245c0-0.084-0.013-0.167-0.037-0.245s-0.060-0.148-0.106-0.208l-7.581-9.974h20.713c0.129 0 0.253-0.067 0.344-0.187s0.142-0.283 0.142-0.453c0-0.17-0.051-0.333-0.142-0.452s-0.215-0.188-0.344-0.188z"></path>
</symbol>
<symbol id="icon-lightning" viewBox="0 0 32 32">
<path d="M10.24 31.040c-0.1 0-0.199-0.014-0.294-0.042-0.133-0.039-0.258-0.104-0.366-0.192s-0.198-0.195-0.264-0.318c-0.066-0.122-0.107-0.256-0.121-0.395s-0-0.278 0.040-0.411l2.902-10.163h-4.355c-0.13 0.005-0.259-0.017-0.38-0.062s-0.232-0.115-0.327-0.203c-0.208-0.183-0.335-0.44-0.353-0.716s0.073-0.548 0.254-0.756l13.562-16.442c0.128-0.154 0.297-0.268 0.487-0.33s0.395-0.067 0.588-0.016c0.133 0.032 0.258 0.090 0.368 0.171s0.202 0.184 0.272 0.302c0.143 0.237 0.187 0.521 0.122 0.79l-2.586 11.459h4.442c0.201 0.001 0.397 0.060 0.566 0.169s0.302 0.264 0.386 0.447c0.083 0.183 0.113 0.385 0.085 0.584s-0.112 0.386-0.243 0.538v0.016l-13.997 15.216c-0.098 0.112-0.219 0.201-0.355 0.262s-0.283 0.092-0.432 0.090zM12.989 18.24c0.099 0 0.197 0.023 0.285 0.068s0.166 0.108 0.225 0.188c0.060 0.079 0.1 0.171 0.118 0.268s0.013 0.198-0.014 0.293l-2.874 10.064 12.979-14.122h-4.72c-0.097 0.002-0.194-0.017-0.282-0.058s-0.167-0.101-0.228-0.176c-0.062-0.075-0.105-0.164-0.128-0.258s-0.023-0.193-0.001-0.288l2.56-11.328-12.653 15.35h4.733z"></path>
</symbol>
<symbol id="icon-profile" viewBox="0 0 32 32">
<path d="M31.040 16c0-2.483-0.615-4.928-1.79-7.115s-2.873-4.050-4.943-5.422c-2.070-1.372-4.447-2.209-6.92-2.439s-4.963 0.157-7.25 1.125c-2.287 0.968-4.298 2.487-5.855 4.421s-2.61 4.224-3.067 6.665c-0.456 2.441-0.301 4.957 0.451 7.323s2.079 4.509 3.862 6.238c2.788 2.706 6.516 4.227 10.401 4.242s7.625-1.475 10.434-4.159c0.062-0.041 0.116-0.091 0.16-0.15 1.43-1.397 2.566-3.067 3.341-4.909s1.175-3.822 1.174-5.821zM16 2.24c2.661 0.002 5.264 0.776 7.495 2.227s3.992 3.518 5.072 5.95c1.079 2.432 1.431 5.125 1.011 7.753s-1.592 5.077-3.376 7.052c-0.708-1.403-1.699-2.644-2.911-3.645s-2.618-1.739-4.129-2.17c1.253-0.701 2.239-1.798 2.802-3.119s0.672-2.792 0.31-4.181-1.175-2.62-2.312-3.498c-1.136-0.878-2.532-1.355-3.968-1.355s-2.832 0.476-3.968 1.355c-1.136 0.878-1.949 2.108-2.312 3.498s-0.253 2.86 0.31 4.181c0.563 1.321 1.549 2.418 2.802 3.119-1.512 0.43-2.918 1.169-4.13 2.171s-2.203 2.243-2.91 3.647c-2.295-2.523-3.56-5.815-3.546-9.226 0-3.649 1.45-7.149 4.030-9.73s6.080-4.030 9.73-4.030zM16 18.96c-1.031 0-2.038-0.306-2.895-0.879s-1.525-1.387-1.919-2.34-0.497-2-0.295-3.011c0.202-1.011 0.699-1.939 1.428-2.667s1.659-1.224 2.67-1.424c1.011-0.2 2.059-0.095 3.011 0.3s1.765 1.065 2.336 1.923c0.571 0.858 0.875 1.866 0.873 2.897-0.003 1.38-0.554 2.702-1.53 3.677s-2.3 1.523-3.679 1.523zM6.758 26.189c0.807-1.774 2.108-3.278 3.747-4.332s3.546-1.615 5.495-1.615c1.949 0 3.856 0.561 5.495 1.615s2.939 2.559 3.747 4.332c-2.529 2.299-5.824 3.573-9.242 3.573s-6.713-1.274-9.242-3.573z"></path>
</symbol>
<symbol id="icon-right-arrow" viewBox="0 0 32 32">
<path d="M5.056 16.64h20.713l-7.581 9.965c-0.046 0.060-0.082 0.131-0.107 0.21s-0.038 0.163-0.038 0.248c0 0.085 0.013 0.169 0.038 0.248s0.061 0.15 0.107 0.21c0.046 0.060 0.1 0.108 0.16 0.14s0.124 0.049 0.188 0.049c0.064 0 0.128-0.017 0.188-0.049s0.114-0.080 0.16-0.14l8.403-11.066c0.023-0.030 0.043-0.063 0.061-0.099 0.008-0.015 0.015-0.031 0.022-0.048l0.024-0.064 0.015-0.064c0.001-0.018 0.001-0.036 0-0.054 0.012-0.082 0.012-0.167 0-0.25 0.001-0.018 0.001-0.036 0-0.054l-0.015-0.064-0.024-0.064c-0.006-0.017-0.014-0.033-0.022-0.048-0.017-0.036-0.038-0.069-0.061-0.099l-8.403-11.066c-0.045-0.061-0.099-0.109-0.159-0.142s-0.124-0.050-0.189-0.050-0.129 0.017-0.189 0.050c-0.060 0.033-0.114 0.082-0.159 0.142-0.045 0.059-0.081 0.13-0.106 0.208s-0.037 0.161-0.037 0.245c0 0.084 0.013 0.167 0.037 0.245s0.060 0.148 0.106 0.208l7.581 9.974h-20.713c-0.129 0-0.253 0.067-0.344 0.187s-0.142 0.283-0.142 0.453c0 0.17 0.051 0.333 0.142 0.452s0.215 0.188 0.344 0.188z"></path>
</symbol>
</defs>
</svg>
