<svg aria-hidden="true" style="position: absolute; width: 0; height: 0; overflow: hidden;" version="1.1" xmlns="http://www.w3.org/2000/svg" xmlns:xlink="http://www.w3.org/1999/xlink">
<defs>
<symbol id="icon-mastercard" viewBox="0 0 51 32">
<path fill="#000" style="fill: var(--color1, #000)" opacity="0.07" d="M46.667 0h-42.667c-2.267 0-4 1.733-4 4v24c0 2.267 1.867 4 4 4h42.667c2.267 0 4-1.733 4-4v-24c0-2.267-1.867-4-4-4z"></path>
<path fill="#fff" style="fill: var(--color2, #fff)" d="M46.667 1.333c1.467 0 2.667 1.2 2.667 2.667v24c0 1.467-1.2 2.667-2.667 2.667h-42.667c-1.467 0-2.667-1.2-2.667-2.667v-24c0-1.467 1.2-2.667 2.667-2.667h42.667z"></path>
<path fill="#eb001b" style="fill: var(--color3, #eb001b)" d="M20 25.333c5.155 0 9.333-4.179 9.333-9.333s-4.179-9.333-9.333-9.333c-5.155 0-9.333 4.179-9.333 9.333s4.179 9.333 9.333 9.333z"></path>
<path fill="#f79e1b" style="fill: var(--color4, #f79e1b)" d="M30.667 25.333c5.155 0 9.333-4.179 9.333-9.333s-4.179-9.333-9.333-9.333c-5.155 0-9.333 4.179-9.333 9.333s4.179 9.333 9.333 9.333z"></path>
<path fill="#ff5f00" style="fill: var(--color5, #ff5f00)" d="M29.333 16c0-3.2-1.6-6-4-7.6-2.4 1.733-4 4.533-4 7.6s1.6 6 4 7.6c2.4-1.6 4-4.4 4-7.6z"></path>
</symbol>
<symbol id="icon-opay" viewBox="0 0 51 32">
<path fill="#000" style="fill: var(--color1, #000)" opacity="0.07" d="M46.667 0h-42.667c-2.267 0-4 1.733-4 4v24c0 2.267 1.867 4 4 4h42.667c2.267 0 4-1.733 4-4v-24c0-2.267-1.867-4-4-4z"></path>
<path fill="#5a31f4" style="fill: var(--color6, #5a31f4)" d="M46.667 1.333c1.467 0 2.667 1.2 2.667 2.667v24c0 1.467-1.2 2.667-2.667 2.667h-42.667c-1.467 0-2.667-1.2-2.667-2.667v-24c0-1.467 1.2-2.667 2.667-2.667h42.667z"></path>
<path fill="#fff" style="fill: var(--color2, #fff)" d="M28.509 12.951c0 2.224-1.569 3.811-3.761 3.811h-2.065c-0.034 0-0.067 0.011-0.096 0.030s-0.051 0.046-0.064 0.077c-0.009 0.021-0.013 0.043-0.013 0.065v2.923c0 0.023-0.005 0.045-0.013 0.066s-0.022 0.040-0.038 0.056c-0.016 0.016-0.035 0.029-0.056 0.037s-0.044 0.013-0.066 0.013h-1.445c-0.046 0-0.090-0.018-0.123-0.051s-0.051-0.077-0.051-0.123v-10.54c-0.001-0.034 0.009-0.068 0.028-0.097s0.046-0.051 0.078-0.063c0.021-0.009 0.044-0.013 0.067-0.013h3.867c2.183 0 3.752 1.587 3.752 3.811v-0.001zM26.707 12.951c0-1.277-0.877-2.211-2.067-2.211h-1.957c-0.023 0-0.045 0.004-0.066 0.013s-0.040 0.021-0.056 0.038c-0.016 0.016-0.029 0.035-0.038 0.056s-0.013 0.044-0.013 0.066v4.067c-0 0.023 0.004 0.045 0.013 0.066s0.022 0.040 0.038 0.056c0.016 0.016 0.035 0.029 0.056 0.038s0.044 0.013 0.066 0.013h1.957c1.189 0.007 2.067-0.927 2.067-2.203zM28.939 18.005c-0.015-0.342 0.056-0.682 0.207-0.989s0.376-0.571 0.656-0.767c0.564-0.421 1.445-0.64 2.74-0.685l1.377-0.048v-0.404c0-0.809-0.547-1.151-1.424-1.151s-1.433 0.308-1.56 0.813c-0.011 0.035-0.033 0.066-0.063 0.088s-0.067 0.033-0.104 0.032h-1.363c-0.037 0-0.074-0.011-0.105-0.033s-0.053-0.053-0.063-0.089c-0.007-0.024-0.009-0.049-0.005-0.073 0.203-1.197 1.205-2.107 3.325-2.107 2.256 0 3.071 1.044 3.071 3.035v4.229c-0 0.023-0.005 0.045-0.014 0.067s-0.022 0.040-0.038 0.056c-0.016 0.016-0.036 0.029-0.057 0.037s-0.044 0.013-0.067 0.012h-1.373c-0.046 0-0.090-0.018-0.123-0.051s-0.051-0.077-0.051-0.123v-0.315c0-0.026-0.007-0.052-0.022-0.073s-0.035-0.038-0.060-0.048c-0.024-0.010-0.050-0.012-0.076-0.007s-0.049 0.018-0.067 0.036c-0.413 0.445-1.077 0.767-2.143 0.767-1.567 0-2.6-0.809-2.6-2.209zM33.919 17.089v-0.328l-1.785 0.093c-0.94 0.048-1.487 0.435-1.487 1.088 0 0.592 0.501 0.92 1.379 0.92 1.191 0 1.893-0.64 1.893-1.773zM37.007 23.223v-1.225c0-0.026 0.006-0.051 0.018-0.074s0.028-0.043 0.048-0.059c0.020-0.016 0.043-0.028 0.068-0.034s0.051-0.007 0.076-0.002c0.211 0.039 0.424 0.059 0.639 0.059 0.368 0.020 0.731-0.084 1.033-0.296s0.522-0.519 0.627-0.872l0.089-0.281c0.013-0.038 0.013-0.079 0-0.117l-2.86-7.295c-0.017-0.040-0.018-0.085-0.003-0.126s0.044-0.074 0.083-0.094c0.025-0.013 0.054-0.020 0.083-0.020h1.387c0.036 0 0.070 0.011 0.1 0.031s0.052 0.049 0.064 0.082l1.941 5.145c0.012 0.035 0.035 0.064 0.064 0.085s0.066 0.032 0.102 0.032c0.036-0 0.072-0.011 0.102-0.032s0.052-0.051 0.065-0.085l1.687-5.131c0.011-0.035 0.034-0.066 0.064-0.088s0.067-0.033 0.104-0.032h1.435c0.043 0 0.085 0.016 0.117 0.044s0.053 0.068 0.059 0.11c0.003 0.028-0 0.057-0.011 0.084l-3.060 8.101c-0.704 1.884-1.911 2.364-3.24 2.364-0.252 0.007-0.504-0.023-0.748-0.088-0.041-0.010-0.077-0.034-0.101-0.069s-0.036-0.076-0.032-0.118h0.001zM11.427 8.533c-1.819-0.014-3.575 0.667-4.911 1.903-0.057 0.052-0.092 0.123-0.099 0.199s0.015 0.153 0.061 0.214l0.824 1.119c0.027 0.038 0.061 0.069 0.102 0.092s0.085 0.036 0.131 0.040c0.046 0.004 0.092-0.003 0.136-0.019s0.082-0.042 0.114-0.075c0.48-0.477 1.050-0.853 1.677-1.107s1.298-0.381 1.974-0.373c2.827 0 4.303 2.112 4.303 4.2 0 2.267-1.551 3.864-3.78 3.895-1.723 0-3.021-1.133-3.021-2.632 0.001-0.379 0.088-0.753 0.252-1.094s0.403-0.642 0.699-0.879c0.063-0.052 0.103-0.126 0.111-0.207s-0.016-0.162-0.067-0.225l-0.867-1.087c-0.026-0.033-0.059-0.061-0.096-0.082s-0.078-0.033-0.12-0.037c-0.042-0.004-0.085 0-0.125 0.013s-0.078 0.033-0.11 0.061c-0.531 0.426-0.96 0.965-1.256 1.577-0.295 0.611-0.449 1.281-0.449 1.96 0 2.58 2.207 4.603 5.033 4.619h0.040c3.356-0.043 5.783-2.512 5.783-5.887 0-2.996-2.223-6.187-6.336-6.187z"></path>
</symbol>
<symbol id="icon-diners" viewBox="0 0 51 32">
<path fill="#000" style="fill: var(--color1, #000)" opacity="0.07" d="M46.667 0h-42.667c-2.267 0-4 1.733-4 4v24c0 2.267 1.867 4 4 4h42.667c2.267 0 4-1.733 4-4v-24c0-2.267-1.867-4-4-4z"></path>
<path fill="#fff" style="fill: var(--color2, #fff)" d="M46.667 1.333c1.467 0 2.667 1.2 2.667 2.667v24c0 1.467-1.2 2.667-2.667 2.667h-42.667c-1.467 0-2.667-1.2-2.667-2.667v-24c0-1.467 1.2-2.667 2.667-2.667h42.667z"></path>
<path fill="#3086c8" style="fill: var(--color7, #3086c8)" d="M16 16v4.933c0 0.4-0.267 0.4-0.667 0.267-2.533-1.067-4-4.4-3.067-7.2 0.533-1.467 1.6-2.667 3.067-3.2 0.533-0.267 0.667-0.133 0.667 0.267v4.933zM18.667 16v-4.933c0-0.4 0-0.4 0.4-0.267 2.8 1.067 4.267 4.4 3.2 7.2-0.533 1.467-1.6 2.667-3.067 3.2-0.533 0.267-0.533 0.133-0.533-0.267v-4.933zM28.267 6.667h-10.933c5.067 0 9.067 4.133 9.067 9.333s-4 9.333-9.067 9.333h10.933c5.067 0 9.067-4.133 9.067-9.333s-4-9.333-9.067-9.333z"></path>
</symbol>
<symbol id="icon-gpay" viewBox="0 0 51 32">
<path fill="#000" style="fill: var(--color1, #000)" opacity="0.07" d="M46.667 0h-42.667c-2.267 0-4 1.733-4 4v24c0 2.267 1.867 4 4 4h42.667c2.267 0 4-1.733 4-4v-24c0-2.267-1.867-4-4-4z"></path>
<path fill="#fff" style="fill: var(--color2, #fff)" d="M46.667 1.333c1.467 0 2.667 1.2 2.667 2.667v24c0 1.467-1.2 2.667-2.667 2.667h-42.667c-1.467 0-2.667-1.2-2.667-2.667v-24c0-1.467 1.2-2.667 2.667-2.667h42.667z"></path>
<path fill="#5f6368" style="fill: var(--color8, #5f6368)" d="M24.124 15.968v4.267h-1.357v-10.533h3.588c0.43-0.007 0.857 0.070 1.257 0.229s0.764 0.394 1.073 0.694c0.292 0.273 0.527 0.6 0.693 0.964s0.258 0.756 0.271 1.155c0.014 0.399-0.052 0.797-0.192 1.171s-0.353 0.717-0.626 1.009l-0.147 0.155c-0.627 0.596-1.464 0.92-2.329 0.899l-2.231-0.008zM24.124 10.992v3.717h2.264c0.503 0.016 0.988-0.18 1.34-0.539 0.252-0.262 0.421-0.593 0.486-0.951s0.024-0.727-0.119-1.061c-0.143-0.334-0.381-0.62-0.684-0.82s-0.659-0.307-1.023-0.307l-2.264-0.040zM32.769 12.79c0.867-0.040 1.715 0.251 2.371 0.817 0.593 0.573 0.909 1.373 0.867 2.199v4.445h-1.292v-1.021h-0.065c-0.232 0.383-0.559 0.699-0.951 0.917s-0.832 0.33-1.28 0.325c-0.731 0.024-1.443-0.23-1.995-0.711-0.261-0.213-0.471-0.483-0.612-0.788s-0.212-0.64-0.205-0.977c-0.015-0.341 0.051-0.68 0.193-0.99s0.356-0.581 0.625-0.792c0.658-0.473 1.454-0.715 2.264-0.687 0.689-0.027 1.373 0.124 1.987 0.441v-0.277c0.004-0.229-0.043-0.457-0.14-0.665s-0.239-0.392-0.416-0.537c-0.357-0.324-0.825-0.5-1.307-0.491-0.35-0.003-0.695 0.083-1.003 0.25s-0.568 0.41-0.755 0.706l-1.193-0.752c0.324-0.464 0.761-0.838 1.271-1.085s1.073-0.36 1.639-0.328zM31.053 18.027c-0.003 0.173 0.036 0.344 0.114 0.497s0.193 0.286 0.335 0.385c0.297 0.235 0.667 0.359 1.047 0.351 0.572-0.001 1.12-0.227 1.528-0.629 0.407-0.381 0.637-0.913 0.637-1.471-0.513-0.365-1.137-0.541-1.765-0.499-0.488-0.019-0.969 0.118-1.373 0.392-0.16 0.107-0.291 0.252-0.383 0.422s-0.139 0.359-0.14 0.552zM43.435 13.027l-4.52 10.387h-1.397l1.708-3.637-2.965-6.749h1.471l2.149 5.18 2.092-5.18h1.463z"></path>
<path fill="#4285f4" style="fill: var(--color9, #4285f4)" d="M18.648 15.045c0-0.411-0.032-0.821-0.097-1.227h-5.72v2.329h3.268c-0.067 0.37-0.207 0.723-0.413 1.038s-0.474 0.584-0.787 0.793v1.512h1.952c0.594-0.574 1.060-1.267 1.37-2.032s0.455-1.588 0.428-2.413z"></path>
<path fill="#34a853" style="fill: var(--color10, #34a853)" d="M12.839 20.961c1.475 0.041 2.91-0.483 4.013-1.463l-1.955-1.52c-0.47 0.301-1.002 0.491-1.556 0.556s-1.116 0.002-1.642-0.183c-0.526-0.185-1.003-0.488-1.395-0.885s-0.688-0.879-0.865-1.407h-2.003v1.56c0.501 1.004 1.272 1.849 2.226 2.439s2.054 0.903 3.176 0.904z"></path>
<path fill="#fbbc04" style="fill: var(--color11, #fbbc04)" d="M9.439 16.067c-0.254-0.75-0.254-1.563 0-2.313v-1.56h-2.003c-0.427 0.842-0.649 1.773-0.649 2.717s0.223 1.875 0.649 2.717l2.003-1.56z"></path>
<path fill="#ea4335" style="fill: var(--color12, #ea4335)" d="M12.839 11.254c0.863-0.016 1.697 0.31 2.32 0.907l1.733-1.724c-1.105-1.037-2.571-1.603-4.087-1.577-1.116 0.006-2.208 0.32-3.155 0.908s-1.714 1.428-2.214 2.425l2.003 1.561c0.234-0.72 0.688-1.348 1.298-1.797s1.345-0.694 2.102-0.703z"></path>
</symbol>
<symbol id="icon-klarna" viewBox="0 0 51 32">
<path fill="#ffb3c7" style="fill: var(--color13, #ffb3c7)" d="M46.667 0h-42.667c-2.267 0-4 1.733-4 4v24c0 2.267 1.867 4 4 4h42.667c2.267 0 4-1.733 4-4v-24c0-2.267-1.867-4-4-4z"></path>
<path fill="#ffb3c7" style="fill: var(--color13, #ffb3c7)" d="M46.667 1.333c1.467 0 2.667 1.2 2.667 2.667v24c0 1.467-1.2 2.667-2.667 2.667h-42.667c-1.467 0-2.667-1.2-2.667-2.667v-24c0-1.467 1.2-2.667 2.667-2.667h42.667z"></path>
<path fill="#0a0b09" style="fill: var(--color14, #0a0b09)" d="M45.489 17.579c-0.649 0-1.176 0.533-1.176 1.189 0 0.657 0.527 1.191 1.176 1.191 0.651 0 1.177-0.533 1.177-1.191 0.001-0.314-0.122-0.615-0.343-0.838s-0.521-0.349-0.835-0.351zM41.619 16.659c0-0.901-0.76-1.631-1.699-1.631s-1.699 0.729-1.699 1.629c0 0.9 0.76 1.631 1.699 1.631s1.699-0.731 1.699-1.631v0.001zM41.625 13.491h1.875v6.333h-1.875v-0.404c-0.546 0.378-1.195 0.58-1.859 0.58-1.825 0-3.304-1.496-3.304-3.343 0-1.845 1.48-3.341 3.304-3.341 0.689 0 1.328 0.213 1.859 0.58v-0.405zM26.621 14.316v-0.825h-1.92v6.333h1.924v-2.956c0-0.999 1.069-1.533 1.812-1.533h0.021v-1.843c-0.76 0-1.461 0.329-1.837 0.824zM21.84 16.657c0-0.9-0.76-1.629-1.699-1.629-0.937 0-1.699 0.729-1.699 1.629s0.76 1.631 1.699 1.631c0.939 0 1.699-0.731 1.699-1.631zM21.847 13.491h1.875v6.333h-1.875v-0.404c-0.546 0.378-1.195 0.581-1.86 0.58-1.824 0-3.304-1.496-3.304-3.343 0-1.845 1.48-3.341 3.304-3.341 0.689 0 1.329 0.213 1.859 0.58v-0.405h0.001zM33.131 13.32c-0.748 0-1.457 0.236-1.931 0.884v-0.713h-1.867v6.333h1.889v-3.328c0-0.963 0.639-1.435 1.407-1.435 0.824 0 1.297 0.499 1.297 1.421v3.343h1.873v-4.028c0-1.475-1.16-2.477-2.669-2.477zM13.953 19.827h1.963v-9.16h-1.963v9.16zM5.333 19.827h2.077v-9.16h-2.077v9.16zM12.6 10.667c0.005 0.964-0.18 1.919-0.544 2.812s-0.901 1.704-1.58 2.388l2.872 3.96h-2.567l-3.121-4.304 0.805-0.611c0.657-0.495 1.189-1.137 1.554-1.874s0.553-1.549 0.548-2.372h2.032z"></path>
</symbol>
<symbol id="icon-v" viewBox="0 0 51 32">
<path fill="#000" style="fill: var(--color1, #000)" opacity="0.07" d="M46.667 0h-42.667c-2.209 0-4 1.791-4 4v24c0 2.209 1.791 4 4 4h42.667c2.209 0 4-1.791 4-4v-24c0-2.209-1.791-4-4-4z"></path>
<path fill="#3d95ce" style="fill: var(--color15, #3d95ce)" d="M46.667 1.333c1.467 0 2.667 1.2 2.667 2.667v24c0 1.467-1.2 2.667-2.667 2.667h-42.667c-1.467 0-2.667-1.2-2.667-2.667v-24c0-1.467 1.2-2.667 2.667-2.667h42.667z"></path>
<path fill="#fff" style="fill: var(--color2, #fff)" d="M32.9 11.147c0 4.085-3.409 9.393-6.177 13.12h-6.32l-2.536-15.507 5.535-0.536 1.34 11.033c1.253-2.088 2.799-5.367 2.799-7.603 0-1.224-0.205-2.057-0.525-2.744l5.040-1.044c0.583 0.984 0.845 1.999 0.845 3.28z"></path>
</symbol>
<symbol id="icon-visa" viewBox="0 0 51 32">
<path fill="#000" style="fill: var(--color1, #000)" opacity="0.07" d="M46.667 0h-42.667c-2.267 0-4 1.733-4 4v24c0 2.267 1.867 4 4 4h42.667c2.267 0 4-1.733 4-4v-24c0-2.267-1.867-4-4-4z"></path>
<path fill="#fff" style="fill: var(--color2, #fff)" d="M46.667 1.333c1.467 0 2.667 1.2 2.667 2.667v24c0 1.467-1.2 2.667-2.667 2.667h-42.667c-1.467 0-2.667-1.2-2.667-2.667v-24c0-1.467 1.2-2.667 2.667-2.667h42.667z"></path>
<path fill="#142688" style="fill: var(--color16, #142688)" d="M37.733 13.467h-0.4c-0.533 1.333-0.933 2-1.333 4h2.533c-0.4-2-0.4-2.933-0.8-4zM41.6 21.333h-2.267c-0.133 0-0.133 0-0.267-0.133l-0.267-1.2-0.133-0.267h-3.2c-0.133 0-0.267 0-0.267 0.267l-0.4 1.2c0 0.133-0.133 0.133-0.133 0.133h-2.8l0.267-0.667 3.867-9.067c0-0.667 0.4-0.933 1.067-0.933h2c0.133 0 0.267 0 0.267 0.267l1.867 8.667c0.133 0.533 0.267 0.933 0.267 1.467 0.133 0.133 0.133 0.133 0.133 0.267zM23.733 20.933l0.533-2.4c0.133 0 0.267 0.133 0.267 0.133 0.933 0.4 1.867 0.667 2.8 0.533 0.267 0 0.667-0.133 0.933-0.267 0.667-0.267 0.667-0.933 0.133-1.467-0.267-0.267-0.667-0.4-1.067-0.667-0.533-0.267-1.067-0.533-1.467-0.933-1.6-1.333-1.067-3.2-0.133-4.133 0.8-0.533 1.2-1.067 2.267-1.067 1.6 0 3.333 0 4.133 0.267h0.133c-0.133 0.8-0.267 1.467-0.533 2.267-0.667-0.267-1.333-0.533-2-0.533-0.4 0-0.8 0-1.2 0.133-0.267 0-0.4 0.133-0.533 0.267-0.267 0.267-0.267 0.667 0 0.933l0.667 0.533c0.533 0.267 1.067 0.533 1.467 0.8 0.667 0.4 1.333 1.067 1.467 1.867 0.267 1.2-0.133 2.267-1.2 3.067-0.667 0.533-0.933 0.8-1.867 0.8-1.867 0-3.333 0.133-4.533-0.267-0.133 0.267-0.133 0.267-0.267 0.133zM19.067 21.333c0.133-0.933 0.133-0.933 0.267-1.333 0.667-2.933 1.333-6 1.867-8.933 0.133-0.267 0.133-0.4 0.4-0.4h2.4c-0.267 1.6-0.533 2.8-0.933 4.267-0.4 2-0.8 4-1.333 6 0 0.267-0.133 0.267-0.4 0.267l-2.267 0.133zM6.667 10.933c0-0.133 0.267-0.267 0.4-0.267h4.533c0.667 0 1.2 0.4 1.333 1.067l1.2 5.867c0 0.133 0 0.133 0.133 0.267 0-0.133 0.133-0.133 0.133-0.133l2.8-6.8c-0.133-0.133 0-0.267 0.133-0.267h2.8c0 0.133 0 0.133-0.133 0.267l-4.133 9.733c-0.133 0.267-0.133 0.4-0.267 0.533s-0.4 0-0.667 0h-2c-0.133 0-0.267 0-0.267-0.267l-2.133-8.267c-0.267-0.267-0.667-0.667-1.2-0.8-0.8-0.4-2.267-0.667-2.533-0.667l-0.133-0.267z"></path>
</symbol>
<symbol id="icon-amex" viewBox="0 0 51 32">
<path fill="#000" style="fill: var(--color1, #000)" opacity="0.07" d="M46.667 0h-42.667c-2.267 0-4 1.733-4 4v24c0 2.267 1.867 4 4 4h42.667c2.267 0 4-1.733 4-4v-24c0-2.267-1.867-4-4-4z"></path>
<path fill="#006fcf" style="fill: var(--color17, #006fcf)" d="M46.667 1.333c1.467 0 2.667 1.2 2.667 2.667v24c0 1.467-1.2 2.667-2.667 2.667h-42.667c-1.467 0-2.667-1.2-2.667-2.667v-24c0-1.467 1.2-2.667 2.667-2.667h42.667z"></path>
<path fill="#fff" style="fill: var(--color2, #fff)" d="M11.961 13.691l1.032 2.501h-2.056l1.024-2.501zM33.395 13.795h-3.969v1.103h3.905v1.652h-3.897v1.229h3.969v0.985l2.769-2.993-2.769-3.12-0.008 1.144zM14.644 10.675h5.327l1.183 2.58 1.096-2.588h13.827l1.437 1.587 1.487-1.587h6.351l-4.692 5.136 4.644 5.104h-6.445l-1.437-1.587-1.5 1.587h-22.547l-0.659-1.587h-1.507l-0.66 1.587h-5.215l4.381-10.24h4.573l0.356 0.008zM26.195 12.112h-2.985l-2 4.715-2.167-4.715h-2.963v6.413l-2.747-6.413h-2.657l-3.176 7.349h2.073l0.659-1.587h3.461l0.659 1.587h3.627v-5.247l2.335 5.255h1.587l2.32-5.239v5.24h1.944l0.032-7.36-0.001 0.001zM38.648 15.803l3.375-3.691h-2.429l-2.135 2.301-2.064-2.301h-7.859v7.357h7.747l2.152-2.317 2.064 2.317h2.5l-3.351-3.667z"></path>
</symbol>
</defs>
</svg>
